<?xml version="1.0" encoding="UTF-8"?><svg id="Layer_2" xmlns="http://www.w3.org/2000/svg" viewBox="0 0 354.67 326.9"><g id="Robot_Parts"><path d="m57.52,72.23c-.06,0-.12-.01-.18-.03-4.5-1.74-7.19-3.45-8.59-5.49-1.02.2-2.15.07-3.23-.44-1.05-.5-2.06-1.37-2.78-2.62-.68.52-1.51.66-2.43.38-1.02-.32-2.07-1.17-2.95-2.41-.56.4-1.13.46-1.55.43-2.97-.24-7-6.16-7.29-12.47-.01-.28.2-.51.48-.52.27-.02.51.2.52.48.27,5.99,4.11,11.33,6.37,11.51.37.04.67-.08.93-.28-1.36-2.38-2.06-5.78-1.02-9.41.86-3,1.62-4.18,2.53-3.96,1.72.43,1.5,6.97.58,11.29-.21.98-.51,1.68-.85,2.18.79,1.17,1.72,1.95,2.54,2.21.73.23,1.27.04,1.67-.35-.79-1.94-.95-4.57.12-7.94,1.4-4.43,1.97-4.55,2.31-4.62.24-.05.48.03.64.22.92,1.04-.18,7.92-1.34,11.32-.15.44-.34.83-.56,1.16.62,1.22,1.54,2.05,2.49,2.5.77.37,1.56.5,2.27.43-.09-.19-.17-.38-.24-.58-.79-2.15-.41-4.63,1.18-7.58,1.06-1.96,1.92-2.87,2.71-2.87h0c.24,0,.67.09.99.66.87,1.61.24,6.92-1.48,9.55-.41.62-.97,1.09-1.62,1.4,1.34,1.76,3.88,3.31,7.95,4.89.26.1.39.39.29.65-.08.2-.27.32-.47.32Zm-5.65-16.47s-.57,0-1.83,2.35c-1.45,2.68-1.81,4.89-1.13,6.76.08.23.18.45.3.67.53-.23.99-.6,1.32-1.1,1.4-2.14,2.07-6.54,1.55-8.26-.11-.35-.22-.41-.22-.41Zm-7.17-4.21c-.26.49-.69,1.48-1.34,3.53-.86,2.71-.86,4.88-.38,6.55.03-.08.06-.17.09-.25,1.18-3.44,1.75-8.17,1.63-9.83Zm-6.59-3.15c-.17.16-.65.79-1.35,3.22-.92,3.21-.35,6.14.73,8.25.21-.43.35-.93.45-1.4,1.04-4.91.74-9.35.17-10.06Z" style="fill:#334155;"/><path d="m95.54,124.65c-1.52,0-3.13-.35-4.56-1.19-.24-.14-.32-.45-.18-.68.14-.24.45-.32.68-.18,3.57,2.09,8.18.63,9.13-.89.11-.18.21-.41.15-.67-1.41.15-3.15-.22-5.13-1.47-2.54-1.59-2.74-2.06-2.73-2.44,0-.22.14-.42.34-.52,1-.5,5.51,1.57,7.39,2.81.25.16.45.34.62.52.83-.2,1.48-.63,1.9-1.15.29-.35.49-.74.59-1.12-.07,0-.13.02-.2.02-1.6.16-3.2-.53-4.91-2.1-1.17-1.09-1.63-1.83-1.48-2.43.05-.19.21-.53.72-.65,1.38-.34,4.8,1.11,6.19,2.64.31.34.53.75.64,1.18,1.3-.61,2.69-1.99,4.32-4.27.16-.22.47-.28.7-.12.22.16.28.47.12.7-1.89,2.64-3.46,4.14-5.05,4.75-.06.7-.35,1.42-.87,2.04-.51.61-1.25,1.13-2.18,1.41.1.45,0,.93-.28,1.39-.84,1.36-3.26,2.42-5.92,2.42Zm-.89-6.94c.34.25.82.58,1.51,1.01,1.36.85,2.57,1.24,3.6,1.32-1.66-1.03-3.82-1.94-5.11-2.33Zm3.49-4.25c.06.16.28.57,1.17,1.39,1.49,1.37,2.84,1.99,4.13,1.84.11-.01.21-.03.32-.05-.07-.3-.22-.58-.43-.83-1.41-1.54-4.5-2.52-5.18-2.36Z" style="fill:#334155;"/><path d="m108.78,123.28l-15.58,2.83-14.15-77.21-30.06,5.46L0,141.35l5.26,28.71,62.84-11.41,4.3,23.48,30.06-5.46-4.3-23.48,15.58-2.83-4.96-27.08Zm-78.85,14.32l25.96-45.57,7.24,39.54-33.2,6.03Z" style="fill:#0ea5e9;"/><path d="m234.27,43.64c-.58-5.33-1.65-10.07-3.2-14.22-1.55-4.14-3.88-8.21-6.99-12.19-3.11-3.98-7.35-7.44-12.7-10.37-5.36-2.93-12.43-4.97-21.22-6.11-18.29-2.38-32.55.86-42.78,9.74-10.23,8.88-16.96,25.88-20.2,51.01-1.32,10.22-1.64,19.67-.98,28.34.66,8.68,2.26,15.65,4.78,20.93,3.45,7.42,8.33,13.34,14.65,17.77,6.31,4.43,14.96,7.36,25.95,8.79,19.6,2.55,34.12-1.21,43.57-11.29,9.45-10.08,15.72-27.11,18.81-51.1,1.38-10.7,1.48-21.14.32-31.32Z" style="fill:#0ea5e9;"/><path d="m180.6,127.08c-2.4-.08-4.96-.3-7.61-.64-9.15-1.19-16.24-3.51-21.05-6.89-4.75-3.33-8.35-7.72-10.99-13.41l-.05-.1c-1.92-4.02-3.18-9.75-3.73-17.03-.61-7.89-.3-16.67.92-26.1,3.57-27.72,10.94-39.29,16.5-44.11,6.48-5.62,15.22-8.16,26.73-7.77,2.36.08,4.86.29,7.42.63,7.39.96,13.23,2.6,17.37,4.86,4.01,2.19,7.14,4.71,9.31,7.49,2.4,3.08,4.2,6.19,5.35,9.27,1.22,3.27,2.09,7.16,2.57,11.56,1.07,9.31.96,18.95-.29,28.72-2.77,21.54-8.13,36.67-15.92,44.98-5.78,6.17-14.45,8.96-26.51,8.55,0,0,0,0,0,0Z" style="fill:#334155;"/><path d="m200.18,43.94l.13-3.79-2.33-.76c-.1-1.29-.31-2.57-.62-3.8l1.97-1.45-1.34-3.56-2.44.2c-.58-1.15-1.26-2.24-2.03-3.27l1.26-2.11-2.6-2.77-2.18,1.12c-.98-.83-2.02-1.59-3.12-2.26l.35-2.42-3.46-1.57-1.58,1.86c-1.21-.39-2.46-.68-3.75-.88l-.59-2.37-3.8-.13-.75,2.33c-1.3.11-2.57.31-3.8.62l-1.46-1.96-3.56,1.33.2,2.44c-1.15.59-2.24,1.27-3.27,2.04l-2.1-1.26-2.78,2.59,1.12,2.19c-.83.97-1.59,2.02-2.25,3.12l-2.42-.36-1.58,3.46,1.87,1.58c-.39,1.21-.7,2.47-.88,3.75l-2.38.6-.13,3.79,2.34.76c.1,1.3.31,2.57.62,3.8l-1.97,1.45,1.34,3.56,2.44-.2c.58,1.15,1.26,2.24,2.03,3.27l-1.26,2.11,2.6,2.77,2.18-1.12c.97.83,2.02,1.59,3.12,2.26l-.36,2.42,3.46,1.57,1.59-1.86c1.21.39,2.46.68,3.75.88l.59,2.37,3.8.13.75-2.33c1.3-.11,2.57-.31,3.8-.62l1.45,1.96,3.56-1.33-.19-2.44c1.15-.59,2.24-1.27,3.27-2.04l2.1,1.26,2.78-2.59-1.12-2.19c.83-.97,1.59-2.02,2.25-3.12l2.42.36,1.58-3.46-1.87-1.58c.39-1.21.69-2.46.88-3.75l2.37-.6Zm-25.6,12.27c-8.3-.28-14.79-7.24-14.51-15.54.28-8.31,7.24-14.8,15.54-14.52,8.3.28,14.79,7.24,14.51,15.55-.28,8.3-7.24,14.79-15.54,14.51Z" style="fill:#0ea5e9;"/><path d="m215.96,113.52l.27-2.55-1.53-.63c0-.88-.08-1.75-.23-2.59l1.4-.89-.71-2.47h-1.66c-.34-.79-.73-1.57-1.2-2.3l.95-1.36-1.61-2-1.53.64c-.61-.61-1.27-1.17-1.99-1.67l.37-1.63-2.25-1.24-1.18,1.19c-.81-.34-1.64-.59-2.48-.79l-.28-1.64-2.55-.29-.63,1.53c-.88,0-1.74.09-2.59.24l-.89-1.41-2.47.72v1.66c-.78.34-1.56.73-2.3,1.2l-1.36-.96-2,1.61.64,1.53c-.59.61-1.17,1.27-1.67,1.99l-1.61-.36-1.24,2.25,1.18,1.16c-.33.82-.59,1.64-.79,2.49l-1.64.27-.27,2.55,1.53.64c0,.87.08,1.73.23,2.58l-1.41.89.72,2.47h1.66c.34.79.73,1.57,1.2,2.3l-.96,1.36,1.6,2.01,1.54-.65c.61.61,1.27,1.17,1.99,1.67l-.37,1.63,2.25,1.24,1.18-1.18c.81.33,1.64.58,2.48.78l.28,1.64,2.55.29.63-1.54c.87,0,1.74-.09,2.59-.24l.89,1.41,2.46-.72v-1.66c.79-.34,1.57-.73,2.31-1.2l1.35.96,2.01-1.6-.65-1.53c.61-.61,1.17-1.27,1.68-1.99l1.61.36,1.24-2.25-1.18-1.16c.33-.82.58-1.64.78-2.48l1.65-.28Zm-12.87-.99c-1.19,2.16-3.9,2.96-6.06,1.77-2.16-1.19-2.94-3.9-1.76-6.06,1.19-2.16,3.89-2.94,6.05-1.76,2.16,1.19,2.96,3.89,1.77,6.05Z" style="fill:#0ea5e9; opacity:.3;"/><path d="m230.13,70.3l-2.98-2.06s0,0,0,0c-.29-1.08-.7-2.13-1.2-3.1l.76-3-4.32-4.63-3.04.56c-.94-.56-1.95-1.04-3.01-1.41,0,0,0,0,0,0l-1.85-3.12-6.33-.22-2.06,2.98s0,0-.01,0c-1.08.29-2.12.7-3.1,1.2l-3-.76-4.63,4.32.56,3.04s0,0,0,0c-.57.95-1.04,1.97-1.41,3.02l-3.12,1.85-.22,6.33,2.98,2.06c.29,1.09.69,2.13,1.2,3.12t0,0l-.76,2.99,4.32,4.63,3.02-.55c.95.56,1.97,1.04,3.04,1.41,0,0,0,0,0,0l1.85,3.11,6.33.22,2.06-2.98c1.09-.29,2.14-.7,3.13-1.2,0,0,0,0,0,0l2.98.76,4.63-4.32-.56-3.04c.57-.95,1.04-1.97,1.41-3.03,0,0,0,0,0,0l3.12-1.85.22-6.33Zm-19.73,9.62c-3.94-.13-7.01-3.44-6.88-7.36.13-3.94,3.43-7.01,7.36-6.88,3.94.13,7.01,3.43,6.88,7.36-.13,3.92-3.43,7.01-7.36,6.88Z" style="fill:#fff;"/><path d="m251.88,19.78l.52-1.26s0,0,0,0c.37-.19.73-.43,1.05-.68l1.16.04,1.36-1.95-.44-1.07c.13-.39.23-.8.28-1.22,0,0,0,0,0,0l1-.92-.42-2.34-1.26-.52s0,0,0,0c-.19-.37-.42-.72-.68-1.04l.04-1.16-1.95-1.36-1.07.44s0,0,0,0c-.4-.14-.8-.23-1.22-.28l-.92-1-2.34.42-.52,1.26c-.38.19-.73.42-1.05.68t0,0l-1.16-.04-1.36,1.95.44,1.07c-.13.39-.23.8-.28,1.23,0,0,0,0,0,0l-1,.92.42,2.34,1.26.52c.19.38.43.73.69,1.05,0,0,0,0,0,0l-.04,1.15,1.95,1.36,1.07-.44c.4.14.8.23,1.22.28,0,0,0,0,0,0l.93,1,2.34-.42Zm-5.09-6.49c-.26-1.46.71-2.84,2.16-3.1,1.46-.26,2.84.71,3.1,2.16s-.71,2.84-2.16,3.1c-1.45.26-2.84-.71-3.1-2.16Z" style="fill:#0ea5e9;"/><path d="m224.45,13.14l-.76-.64c1.33-1.57,3.21-3.56,6.01-5.03l.46.89c-2.98,1.56-4.89,3.82-5.71,4.79Z" style="fill:#0ea5e9;"/><path d="m232.43,7.45l-.39-.92c3.78-1.62,7.73-2.25,11.74-1.88l-.09,1c-3.84-.37-7.62.25-11.25,1.8Z" style="fill:#0ea5e9;"/><path d="m230.54,14.37l-.83-.56c2.05-3.02,6.11-5.64,9.87-6.39l.19.98c-3.52.7-7.32,3.15-9.24,5.97Z" style="fill:#0ea5e9;"/><path d="m164.18,110.61c-.13,0-.26-.05-.36-.15l-2.1-2.16c-1.07-.1-2.12-.3-3.15-.59l-3.27,1.44c-.16.07-.34.05-.48-.04l-5.48-3.63c-.14-.09-.23-.25-.22-.42l.05-3.56c-.67-.83-1.26-1.73-1.77-2.68l-2.81-1.09c-.16-.06-.28-.2-.31-.37l-1.31-6.44c-.03-.17.02-.34.14-.46l2.16-2.1c.1-1.06.3-2.12.58-3.15l-1.44-3.26c-.07-.16-.05-.34.04-.48l3.63-5.48c.09-.14.23-.23.42-.22l3.56.05c.84-.67,1.74-1.26,2.68-1.76l1.09-2.81c.06-.16.2-.28.37-.31l6.44-1.31c.17-.03.34.02.46.14l2.09,2.16c1.06.1,2.12.3,3.15.58l3.26-1.44c.16-.07.34-.05.48.04l5.48,3.63c.14.09.23.25.22.42l-.05,3.57c.67.83,1.26,1.73,1.76,2.67l2.81,1.09c.16.06.28.2.31.37l1.31,6.44c.03.17-.02.34-.14.46l-2.16,2.1c-.1,1.05-.3,2.11-.59,3.14l1.44,3.27c.07.16.05.34-.04.48l-3.63,5.47c-.09.14-.24.21-.42.22l-3.56-.05c-.83.66-1.73,1.25-2.68,1.76l-1.09,2.81c-.06.16-.2.28-.37.31l-6.44,1.31s-.07,0-.1,0Zm-5.64-3.93s.09,0,.14.02c1.07.31,2.18.52,3.31.62.12,0,.23.06.32.15l2.04,2.1,5.9-1.2,1.06-2.73c.04-.11.13-.21.24-.26,1-.52,1.95-1.14,2.82-1.85.09-.07.19-.12.32-.11l3.47.05,3.33-5.02-1.4-3.18c-.05-.11-.05-.23-.02-.34.32-1.09.52-2.21.62-3.31,0-.12.06-.23.15-.32l2.1-2.04-1.2-5.9-2.73-1.06c-.12-.04-.21-.13-.27-.24-.52-1-1.14-1.94-1.85-2.81-.08-.09-.12-.21-.11-.33l.05-3.47-5.02-3.33-3.18,1.4c-.11.05-.23.05-.34.02-1.08-.32-2.2-.52-3.32-.62-.12,0-.23-.06-.32-.15l-2.03-2.1-5.9,1.2-1.06,2.73c-.04.11-.13.21-.24.26-1,.52-1.94,1.14-2.82,1.85-.09.07-.21.13-.33.11l-3.47-.05-3.33,5.02,1.4,3.18c.06.14.06.29-.01.43-.28,1-.49,2.11-.58,3.23,0,.12-.06.23-.15.32l-2.1,2.04,1.2,5.9,2.73,1.06c.12.05.22.14.27.26.52.99,1.14,1.93,1.84,2.79.08.09.12.21.12.33l-.05,3.47,5.02,3.33,3.18-1.4c.06-.03.13-.04.2-.04Zm4.92-3.24c-2.53,0-5.08-.72-7.34-2.21-2.97-1.97-4.99-4.97-5.7-8.46-.71-3.49-.02-7.04,1.95-10.01h0c4.07-6.12,12.35-7.81,18.47-3.75,6.12,4.06,7.8,12.35,3.74,18.47-2.56,3.86-6.8,5.96-11.12,5.96Zm-10.26-20.13c-1.82,2.74-2.46,6.03-1.8,9.26.66,3.23,2.53,6,5.27,7.82,5.67,3.75,13.33,2.2,17.08-3.46,3.75-5.66,2.2-13.33-3.46-17.09-5.66-3.75-13.33-2.2-17.09,3.47h0Z" style="fill:#fff;"/><path d="m354.67,132.3l-15.69-2.12,10.38-77.81-30.28-4.09-73.45,67.63-3.86,28.93,63.29,8.54-3.16,23.66,30.28,4.09,3.16-23.66,15.69,2.12,3.64-27.29Zm-79.42-10.72l38.76-35.33-5.32,39.84-33.44-4.51Z" style="fill:#0ea5e9;"/><path d="m322.97,180.39s-.06,0-.09,0c-.27-.05-.45-.31-.4-.58l23.33-127.93c.05-.27.31-.44.58-.4.27.05.45.31.4.58l-23.33,127.93c-.04.24-.25.41-.49.41Z" style="fill:#334155;"/><path d="m343.67,54.02c-.02.45-.39.81-.85.79s-.81-.39-.79-.85.39-.81.85-.79c.45.02.81.39.79.85Z" style="fill:#334155;"/><path d="m340.34,71.32c-.02.45-.39.81-.85.79s-.81-.39-.79-.85.39-.81.85-.79c.45.02.81.39.79.85Z" style="fill:#334155;"/><path d="m337.01,88.62c-.02.45-.39.81-.85.79s-.81-.39-.79-.85.39-.81.85-.79c.45.02.81.39.79.85Z" style="fill:#334155;"/><path d="m330.45,106.63c-.02.45-.39.81-.85.79s-.81-.39-.79-.85.39-.81.85-.79.81.39.79.85Z" style="fill:#334155;"/><path d="m330.34,123.22c-.02.45-.39.81-.85.79s-.81-.39-.79-.85.39-.81.85-.79.81.39.79.85Z" style="fill:#334155;"/><path d="m327.01,140.52c-.02.45-.39.81-.85.79s-.81-.39-.79-.85c.02-.45.39-.81.85-.79s.81.39.79.85Z" style="fill:#334155;"/><path d="m323.68,157.83c-.02.45-.39.81-.85.79s-.81-.39-.79-.85.39-.81.85-.79.81.39.79.85Z" style="fill:#334155;"/><path d="m320.34,175.13c-.02.45-.39.81-.85.79s-.81-.39-.79-.85.39-.81.85-.79.81.39.79.85Z" style="fill:#334155;"/><path d="m329.63,107.11c-.23,0-.44-.16-.49-.4-.06-.27.11-.54.38-.59l2.48-.53c.27-.05.54.11.59.38.06.27-.11.54-.38.59l-2.48.53s-.07.01-.11.01Z" style="fill:#334155;"/><path d="m337.92,97.89s-2.24,5.83-2.99,9.36c-.75,3.53-.8,11.42-.8,11.42" style="fill:#334155;"/><path d="m334.13,119.18h0c-.28,0-.5-.23-.5-.5,0-.32.05-7.98.81-11.53.75-3.53,2.92-9.2,3.01-9.44.1-.26.39-.38.65-.29.26.1.39.39.29.65-.02.06-2.23,5.83-2.97,9.29-.73,3.44-.79,11.25-.79,11.32,0,.28-.23.5-.5.5Z" style="fill:#334155;"/><path d="m151.29,205.49c1.39-22.4-1.17-63.13,40.94-57.74,45.14,5.78,32.22,58.56,32.22,58.56l-73.17-.82Z" style="fill:#334155;"/><circle cx="180.35" cy="173.65" r="18.38" style="fill:#fff;"/><path d="m182.77,155.3c-8.7-1.49-18.01,4.93-18.93,11.43l34.51,3.17c-1.22-7.41-8.67-13.42-15.58-14.6Z" style="fill:#334155;"/><path d="m194.41,173.19c-.25,4.8-2.86,8.57-5.85,8.42s-5.2-4.17-4.95-8.98c.25-4.8,2.86-8.57,5.85-8.42s5.2,4.17,4.95,8.98Z" style="fill:#334155;"/><path d="m180.35,193.03c-10.68,0-19.38-8.69-19.38-19.38s8.69-19.38,19.38-19.38,19.38,8.69,19.38,19.38-8.69,19.38-19.38,19.38Zm0-36.75c-9.58,0-17.38,7.79-17.38,17.38s7.79,17.38,17.38,17.38,17.38-7.79,17.38-17.38-7.79-17.38-17.38-17.38Z" style="fill:#0ea5e9;"/><path d="m219.32,204.93s-.08,0-.12-.01c-.27-.06-.43-.33-.37-.6.03-.13,3.22-13.69-.09-27.4-.06-.27.1-.54.37-.6.26-.06.54.1.6.37,3.37,13.95.12,27.73.09,27.87-.06.23-.26.38-.49.38Z" style="fill:#fff; opacity:.3;"/><path d="m216.54,169.41c-.19,0-.37-.11-.45-.29-1.29-2.81-2.88-5.38-4.74-7.66-.17-.21-.14-.53.07-.7.21-.18.53-.14.7.07,1.91,2.34,3.56,4.99,4.88,7.87.12.25,0,.55-.25.66-.07.03-.14.05-.21.05Z" style="fill:#fff; opacity:.3;"/><path d="m57.57,310.57c-.12,0-.25,0-.37,0-2.76-.08-4.94-2.38-4.86-5.14.08-2.76,2.35-4.89,5.14-4.86.03,0,.06,0,.1,0,2.89,0,9.84-3.51,24.38-26.43.78-1.23,2.06-2.06,3.5-2.27,1.44-.21,2.91.22,4,1.18,17.94,15.64,36.95,25.38,37.14,25.48,2.46,1.25,3.44,4.26,2.19,6.72-1.25,2.46-4.26,3.45-6.72,2.2-.76-.38-17.37-8.88-34.8-23.15-12.19,18.32-21.23,26.27-29.7,26.27Z" style="fill:#334155;"/><path d="m88.51,272.15c-.14,0-.28,0-.43-.03-1.64-.23-2.78-1.75-2.55-3.39.71-4.98-.17-23.63-6.47-38.13-.57-1.32-.13-2.86,1.06-3.68,13.7-9.33,42.88-10.45,44.11-10.49,1.65-.04,3.04,1.24,3.1,2.89.06,1.66-1.24,3.04-2.89,3.1-.27,0-25.78.99-38.89,8.2,5.58,14.44,6.85,32.44,5.92,38.95-.21,1.5-1.5,2.58-2.97,2.58Z" style="fill:#334155;"/><path d="m93.55,268.27c-2-4.71-10.99-4.17-16.27-.14-2.82,2.16-6.64,8.64-7.04,10.99-.4,2.35,1.23,4.48,4.02,4.24,3.45-.3,8.18-5.31,8.18-5.31-3.15,3.09.91,5.27,6.98.8,3.36-2.48,6.36-5.31,4.13-10.58Z" style="fill:#0ea5e9;"/><path d="m265.54,206.81s-.09,0-.14-.02c-.27-.08-.42-.35-.34-.62,1.33-4.64,2.79-7.47,4.7-9.05-.29-1-.26-2.14.15-3.26.4-1.09,1.18-2.17,2.36-3-.58-.63-.79-1.45-.59-2.38.23-1.04.98-2.17,2.14-3.16-.45-.52-.56-1.09-.57-1.51-.03-2.98,5.51-7.53,11.76-8.38.27-.05.53.15.56.43.04.27-.15.53-.43.56-5.94.81-10.92,5.11-10.9,7.38,0,.37.14.66.36.9,2.25-1.57,5.57-2.58,9.28-1.86,3.07.59,4.32,1.24,4.17,2.17-.27,1.75-6.81,2.12-11.19,1.59-.99-.12-1.72-.35-2.25-.65-1.09.89-1.79,1.89-1.97,2.73-.16.75.08,1.27.5,1.64,1.86-.96,4.47-1.36,7.92-.59,4.54,1,4.71,1.55,4.81,1.88.07.24.01.48-.16.66-.96,1.01-7.91.53-11.4-.32-.45-.11-.86-.26-1.2-.45-1.16.73-1.9,1.71-2.27,2.71-.29.8-.36,1.59-.23,2.3.18-.11.36-.21.55-.29,2.07-.98,4.57-.82,7.65.5,2.04.88,3.03,1.65,3.1,2.44.02.23-.02.68-.57,1.04-1.52,1.01-6.87.86-9.65-.62-.66-.35-1.17-.87-1.54-1.49-1.63,1.49-2.95,4.17-4.16,8.36-.06.22-.26.36-.48.36Zm5.43-9.33c.28.51.69.93,1.22,1.22,2.26,1.2,6.7,1.48,8.36.8.34-.14.39-.25.39-.25,0,0-.05-.56-2.5-1.61-2.8-1.2-5.04-1.37-6.83-.52-.22.1-.43.22-.64.36Zm3.33-6.57c.09.03.17.05.26.07,3.53.86,8.3,1.01,9.93.74-.51-.21-1.54-.56-3.64-1.02-2.77-.61-4.94-.42-6.56.2Zm1.26-5.62c.45.17.96.27,1.44.32,4.98.59,9.38-.11,10.04-.73-.17-.15-.84-.58-3.33-1.06-3.28-.62-6.15.2-8.15,1.46Z" style="fill:#334155;"/><path d="m135.37,308.9c.66-.21.44-.85-.3-.85h-13.54c-25.78-2.73-43.79.93-32.44,1.79,11.35.86-.8.68-9.09,3.82-8.29,3.14,61.65,3.93,68.02,0,5.87-3.62-21.78-1.83-12.65-4.76Z" style="fill:#334155;"/><polygon points="232.31 312.89 114.51 308.98 109.62 194.76 248.73 197.87 232.31 312.89" style="fill:#0ea5e9;"/><path d="m151.29,310.7c-.26,0-.48-.2-.5-.46l-9.44-114.72c-.02-.28.18-.52.46-.54.28-.02.52.18.54.46l9.44,114.72c.02.28-.18.52-.46.54-.01,0-.03,0-.04,0Z" style="fill:#334155;"/><polygon points="232.31 312.89 263.97 308.07 273.94 201.86 248.73 197.87 232.31 312.89" style="fill:#0ea5e9;"/><polygon points="232.31 312.89 263.97 308.07 273.94 201.86 248.73 197.87 232.31 312.89" style="opacity:.2;"/><path d="m124.57,286.97l-2.9-67.86c-.3-7.08,5.44-12.95,12.53-12.79l88.06,1.97c7.35.16,12.91,6.72,11.87,14l-9.76,68.39c-.88,6.2-6.29,10.74-12.55,10.53l-75.39-2.5c-6.41-.21-11.58-5.33-11.85-11.74Z" style="fill:#334155;"/><path d="m134.09,227.14l13.62.43-.11,3.51-8.53-.27-.08,2.61,7.91.25-.11,3.36-7.91-.25-.1,3.24,8.78.28-.12,3.73-13.87-.44.52-16.45Z" style="fill:#fff;"/><path d="m150.24,244.12l.52-16.45,8.47.27c1.57.05,2.77.22,3.59.52.82.3,1.48.82,1.96,1.56.49.75.71,1.64.68,2.69-.03.91-.25,1.69-.66,2.34-.41.65-.96,1.17-1.66,1.56-.44.25-1.04.45-1.81.59.6.22,1.03.44,1.3.65.18.14.44.44.79.89s.57.8.68,1.04l2.31,4.85-5.74-.18-2.56-5.11c-.32-.66-.62-1.09-.88-1.3-.36-.27-.77-.41-1.23-.42h-.45s-.21,6.66-.21,6.66l-5.11-.16Zm5.42-9.62l2.14.07c.23,0,.68-.05,1.35-.18.34-.06.62-.22.84-.49.22-.27.34-.58.35-.94.02-.53-.14-.94-.47-1.24-.33-.3-.96-.46-1.88-.49l-2.23-.07-.11,3.34Z" style="fill:#fff;"/><path d="m168.12,244.69l.52-16.45,8.47.27c1.57.05,2.77.22,3.59.52.82.3,1.48.82,1.96,1.56.49.75.71,1.64.68,2.69-.03.91-.25,1.69-.66,2.34-.41.65-.96,1.17-1.66,1.56-.44.25-1.04.45-1.81.59.6.22,1.03.44,1.3.65.18.14.44.44.79.89.34.45.57.8.68,1.04l2.31,4.85-5.74-.18-2.56-5.11c-.32-.66-.62-1.09-.88-1.3-.36-.27-.77-.41-1.23-.42h-.45s-.21,6.66-.21,6.66l-5.11-.16Zm5.42-9.62l2.14.07c.23,0,.68-.05,1.35-.18.34-.06.62-.22.84-.49.22-.27.34-.58.35-.94.02-.53-.14-.94-.47-1.24-.33-.3-.96-.46-1.88-.49l-2.23-.07-.11,3.34Z" style="fill:#fff;"/><path d="m185.16,237.01c.09-2.69.9-4.75,2.44-6.2,1.54-1.45,3.65-2.13,6.32-2.05,2.74.09,4.82.89,6.26,2.41,1.43,1.52,2.11,3.6,2.03,6.25-.06,1.92-.44,3.49-1.12,4.7-.69,1.21-1.65,2.14-2.9,2.78-1.25.65-2.78.94-4.61.88-1.86-.06-3.38-.4-4.58-1.03-1.2-.63-2.15-1.6-2.87-2.9-.72-1.3-1.04-2.92-.98-4.84Zm5.08.18c-.05,1.66.22,2.86.81,3.61.59.75,1.42,1.13,2.48,1.17,1.09.03,1.95-.29,2.57-.99.62-.69.96-1.96,1.02-3.8.05-1.55-.23-2.69-.83-3.42-.6-.73-1.44-1.12-2.51-1.15-1.03-.03-1.86.3-2.5,1.01-.64.71-.99,1.9-1.05,3.57Z" style="fill:#fff;"/><path d="m204.75,245.86l.52-16.45,8.47.27c1.57.05,2.77.22,3.59.52.82.3,1.48.82,1.96,1.56.49.75.71,1.64.68,2.69-.03.91-.25,1.69-.66,2.34-.41.65-.96,1.17-1.66,1.56-.44.25-1.04.45-1.81.59.6.22,1.03.44,1.3.65.18.14.44.44.79.89.34.45.57.8.68,1.04l2.31,4.85-5.74-.18-2.56-5.11c-.32-.66-.62-1.09-.88-1.3-.36-.27-.77-.41-1.23-.42h-.45s-.21,6.66-.21,6.66l-5.11-.16Zm5.42-9.62l2.14.07c.23,0,.68-.05,1.35-.18.34-.06.62-.22.84-.49.22-.27.34-.58.35-.94.02-.53-.14-.94-.47-1.24-.33-.3-.96-.46-1.88-.49l-2.23-.07-.11,3.34Z" style="fill:#fff;"/><path d="m212.84,273.81c-.36,0-.71-.14-.97-.43l-8.56-9.37-9.24,8.44c-.54.49-1.37.45-1.85-.08l-8.56-9.37-9.24,8.44c-.54.49-1.37.45-1.85-.08l-8.56-9.37-9.24,8.44c-.26.24-.6.36-.94.34-.35-.02-.68-.17-.91-.43l-8.56-9.37-9.24,8.44c-.53.49-1.37.45-1.85-.08-.49-.54-.45-1.37.08-1.85l10.21-9.33c.53-.49,1.37-.45,1.85.08l8.56,9.37,9.24-8.44c.26-.24.6-.36.94-.34.35.02.68.17.91.43l8.56,9.37,9.24-8.44c.53-.49,1.37-.45,1.85.08l8.56,9.37,9.24-8.44c.53-.49,1.36-.45,1.85.08l9.45,10.34c.49.54.45,1.37-.08,1.85-.25.23-.57.34-.88.34Z" style="fill:#fff;"/><polygon points="54.59 315.32 48.33 312.33 42.75 285.17 45.78 281.83 54.59 315.32" style="fill:#0ea5e9;"/><polygon points="54.59 315.32 62.89 310.47 55.77 288.08 45.78 281.83 54.59 315.32" style="fill:#0ea5e9;"/><polygon points="54.59 315.32 62.89 310.47 55.77 288.08 45.78 281.83 54.59 315.32" style="opacity:.2;"/><path d="m190.79,320.26c-.24,0-.47,0-.69,0-2.76-.08-4.94-2.38-4.86-5.14.08-2.76,2.36-4.93,5.14-4.86,7.7.25,24.01-4.48,33.32-13.52.58-.56,1.28-.97,2.05-1.2,15.79-4.74,21.66,4.83,21.91,5.24l-8.61,5.09s.03.07.12.18c-.1-.13-2.33-3.04-9.45-1.24-11.69,10.67-29.63,15.45-38.91,15.45Z" style="fill:#334155;"/><polygon points="190.23 326.9 172.02 325.76 170.58 292.18 195.06 293.09 190.23 326.9" style="fill:#0ea5e9;"/><polygon points="190.23 326.9 194.49 322.67 197.13 301.73 195.06 293.09 190.23 326.9" style="fill:#0ea5e9;"/><polygon points="190.23 326.9 194.49 322.67 197.13 301.73 195.06 293.09 190.23 326.9" style="opacity:.2;"/><path d="m295.75,314.19c-.63,0-1.27-.2-1.81-.61-10.39-7.9-24.45-21.93-29.84-35.46-.08-.2-.14-.4-.17-.61-2.63-15.63-5.14-48.54-5.25-49.93-.13-1.65,1.11-3.09,2.76-3.22,1.65-.12,3.09,1.11,3.22,2.76.03.34,2.56,33.57,5.13,49.07,5.38,13.16,19.96,26.67,27.78,32.61,1.32,1,1.58,2.88.57,4.2-.59.78-1.49,1.18-2.39,1.18Z" style="fill:#334155;"/><path d="m309.62,315.7c-2.32,0-4.95-1.05-7.81-3.12-1.34-.97-1.64-2.85-.67-4.19.97-1.34,2.85-1.64,4.19-.67,2.48,1.79,3.83,1.99,4.3,1.99,1.66,0,3,1.34,3,3s-1.34,3-3,3Z" style="fill:#334155;"/><path d="m302.64,312.49c3.21-9.54,16.37-7.65,20.9-6.24,4.53,1.42,8.61,3.2,11.07,4.8,2.45,1.6,2.49,4.29-.78,5.82-4.04,1.89-14.16.21-14.16.21,5.24,2.29-.01,5.97-9.21,2.36-2.99-1.18-8.96-3.46-7.83-6.96Z" style="fill:#0ea5e9;"/><path d="m270.7,231.69c-1.19,8.1-7.9,14.08-13.36,13.27-5.46-.8-5.68-8.04-4.49-16.14,1.19-8.1,3.35-14,8.81-13.2,5.46.8,10.24,7.96,9.04,16.06Z" style="fill:#334155;"/><circle cx="138.71" cy="198.53" r=".82" style="fill:#334155;"/><path d="m147.05,204.43c0,.45-.37.82-.82.82s-.82-.37-.82-.82.37-.82.82-.82.82.37.82.82Z" style="fill:#334155;"/><path d="m147.96,301.33c0,.45-.37.82-.82.82s-.82-.37-.82-.82.37-.82.82-.82.82.37.82.82Z" style="fill:#334155;"/><path d="m155.48,307.24c0,.45-.37.82-.82.82s-.82-.37-.82-.82.37-.82.82-.82.82.37.82.82Z" style="fill:#334155;"/><path d="m11.35,317.07c-2.38,0-5.6-1.44-7.33-3.95-.16-.23-.1-.54.13-.7.23-.16.54-.1.7.13,1.87,2.69,5.98,4.13,7.81,3.28.19-.09.35-.2.47-.34-1.63-.75-3.12-2.23-3.53-4.48-.23-1.27-.41-2.98.64-3.22,1.43-.32,3.31,3.15,4.03,5.78.13.49.18.94.13,1.34.63.17,1.25.22,1.79.14.43-.06,1.05-.24,1.37-.75-1.21-.82-2.03-2.27-2.3-4.19-.39-2.73-.1-3.21.21-3.44.2-.15.45-.18.69-.08,1.07.46,2.37,4.33,2.61,6.53.03.24.03.47,0,.69.41.16.86.25,1.35.26.87.05,1.72-.23,2.41-.63-.14-.09-.28-.19-.4-.3-1.04-.89-1.46-2.3-1.28-4.33.14-1.57.49-2.42,1.12-2.69.22-.1.67-.19,1.21.24,1.08.86,2.09,3.6,1.73,5.56-.08.41-.25.79-.5,1.15,1.83.32,4.42-.2,6.64-.75.27-.07.54.1.61.37s-.1.54-.37.61c-2.71.67-5.63,1.21-7.69.62-.92.73-2.21,1.17-3.5,1.16-.59-.01-1.14-.12-1.64-.31-.39.67-1.13,1.12-2.12,1.27-.66.1-1.45.04-2.24-.19-.23.38-.56.68-1.01.89-.48.22-1.07.33-1.72.33Zm-.86-8.28c-.06.15-.16.66.08,2.04.33,1.84,1.52,3.06,2.84,3.71,0-.21-.05-.45-.12-.71-.79-2.86-2.28-4.83-2.81-5.04Zm5.57-.87c0,.38.03,1.01.18,2.06.2,1.43.73,2.52,1.52,3.22-.23-2.01-1.12-4.33-1.7-5.28Zm6.29-.87h0s-.38.19-.52,1.86c-.15,1.68.16,2.82.93,3.48.18.15.38.28.6.38.28-.31.48-.66.54-1.03.27-1.45-.42-3.57-1.2-4.43-.2-.22-.33-.27-.36-.27Z" style="fill:#334155;"/><polygon points="157.71 324.63 160.42 319.93 157.71 315.23 154.81 315.23 156.45 319.93 154.81 324.63 157.71 324.63" style="fill:#334155;"/><path d="m155,322.38c-1.35,0-2.45-1.1-2.45-2.45s1.1-2.44,2.45-2.44l-4.61-.92-1.22,3.72,2.06,3.14,3.77-1.05Z" style="fill:#334155;"/><path d="m155.4,315.23h-5.43l-2.71,4.7,2.71,4.7h5.43l2.71-4.7-2.71-4.7Zm-2.71,7.15c-1.35,0-2.45-1.1-2.45-2.45s1.1-2.44,2.45-2.44,2.44,1.09,2.44,2.44-1.09,2.45-2.44,2.45Z" style="fill:#0ea5e9;"/><polygon points="346.73 314.92 344.72 311.43 346.73 307.94 348.88 307.94 347.67 311.43 348.88 314.92 346.73 314.92" style="fill:#0ea5e9;"/><path d="m348.74,313.24c1,0,1.82-.82,1.82-1.82s-.82-1.81-1.82-1.81l3.42-.68.91,2.76-1.53,2.33-2.8-.78Z" style="fill:#0ea5e9;"/><path d="m348.45,307.94h4.03l2.01,3.49-2.01,3.49h-4.03l-2.01-3.49,2.01-3.49Zm2.01,5.31c1,0,1.82-.82,1.82-1.82s-.82-1.81-1.82-1.81-1.81.81-1.81,1.81.81,1.82,1.81,1.82Z" style="fill:#334155;"/><path d="m271.79,319.55h4.52c1.18,0,2.14-.96,2.14-2.14h0c0-1.18-.96-2.14-2.14-2.14h-4.52c-1.18,0-2.14.96-2.14,2.14h0c0,1.18.96,2.14,2.14,2.14Z" style="fill:#334155;"/><path d="m264.57,315.51c1.12-2.37,3.82-3.44,6.04-2.39,2.22,1.05,3.12,3.81,2,6.18s-3.82,3.44-6.04,2.39c-2.22-1.05-3.12-3.81-2-6.18Z" style="fill:#0ea5e9;"/><rect x="267.91" y="312.36" width="1.37" height="10.1" transform="translate(376.17 719.05) rotate(-154.76)" style="fill:#334155;"/></g></svg>